<?xml version="1.0" encoding="UTF-8"?>
<svg xmlns="http://www.w3.org/2000/svg" xmlns:xlink="http://www.w3.org/1999/xlink" width="50pt" height="50pt" viewBox="0 0 50 50" version="1.1">
<g id="surface16690054">
<path style=" stroke:none;fill-rule:nonzero;fill:rgb(90.588236%,29.803923%,23.529412%);fill-opacity:1;" d="M 21.484375 -0.0664062 C 17.894531 -0.0664062 14.925781 2.742188 14.582031 6.25 L 4.167969 6.25 L 4.167969 10.417969 L 14.519531 10.417969 L 14.519531 10.480469 L 35.480469 10.480469 L 35.480469 10.417969 L 45.832031 10.417969 L 45.832031 6.25 L 35.417969 6.25 C 35.089844 2.742188 32.257812 -0.0664062 28.777344 -0.0664062 Z M 21.484375 4.230469 L 28.777344 4.230469 C 29.835938 4.230469 30.617188 5.0625 30.925781 6.183594 L 19.074219 6.183594 C 19.367188 5.0625 20.183594 4.230469 21.484375 4.230469 Z M 8.332031 12.5 L 8.332031 46.875 C 8.332031 48.542969 9.789062 50 11.457031 50 L 38.738281 50 C 40.40625 50 41.863281 48.542969 41.863281 46.875 L 41.863281 12.5 Z M 14.582031 18.75 L 16.667969 18.75 L 16.667969 45.832031 L 14.582031 45.832031 Z M 20.832031 18.75 L 22.917969 18.75 L 22.917969 45.832031 L 20.832031 45.832031 Z M 27.082031 18.75 L 29.167969 18.75 L 29.167969 45.832031 L 27.082031 45.832031 Z M 33.332031 18.75 L 35.417969 18.75 L 35.417969 45.832031 L 33.332031 45.832031 Z M 33.332031 18.75 "/>
</g>
</svg>
